<svg width="32" height="32" viewBox="0 0 32 32" fill="none" xmlns="http://www.w3.org/2000/svg">
<g clip-path="url(#clip0_74_927)">
<path fill-rule="evenodd" clip-rule="evenodd" d="M2.85718 26.5714V5.14286C2.85718 2.30254 5.15971 0 8.00003 0H24C26.8403 0 29.1429 2.30254 29.1429 5.14286V22.8571C29.1429 23.8039 28.3753 24.5714 27.4286 24.5714H26.8572V28.5714H27.4286C28.3753 28.5714 29.1429 29.339 29.1429 30.2857C29.1429 31.2325 28.3753 32 27.4286 32H8.28575C5.28762 32 2.85718 29.5696 2.85718 26.5714ZM23.4286 24.5714H8.28575C7.18118 24.5714 6.28575 25.467 6.28575 26.5714C6.28575 27.6759 7.18118 28.5714 8.28575 28.5714H23.4286V24.5714ZM24.7102 10.9081C24.5139 10.5285 24.1223 10.2902 23.6949 10.2902H18.4034C17.7722 10.2902 17.2606 10.8019 17.2606 11.433C17.2606 12.0642 17.7722 12.5759 18.4034 12.5759H21.4849L17.1401 18.7098C16.8931 19.0585 16.8613 19.5158 17.0575 19.8953C17.2538 20.2749 17.6454 20.5132 18.0727 20.5132H24.0256C24.6569 20.5132 25.1685 20.0016 25.1685 19.3704C25.1685 18.7392 24.6569 18.2275 24.0256 18.2275H20.2827L24.6277 12.0936C24.8745 11.745 24.9063 11.2876 24.7102 10.9081ZM13.2889 6.00997C13.0084 5.16855 12.221 4.60101 11.334 4.60101C10.4471 4.60101 9.65969 5.16855 9.37923 6.00997L7.83297 10.6487C7.82701 10.6653 7.82141 10.6821 7.81619 10.699L6.94262 13.3198C6.74301 13.9186 7.06662 14.5658 7.66541 14.7654C8.26422 14.965 8.91144 14.6414 9.11103 14.0426L9.73247 12.1783H12.9356L13.5571 14.0426C13.7567 14.6414 14.4039 14.965 15.0027 14.7654C15.6015 14.5658 15.9251 13.9186 15.7255 13.3198L14.8519 10.699C14.8467 10.6821 14.8411 10.6653 14.8351 10.6487L13.2889 6.00997ZM10.4944 9.89257L11.334 7.37355L12.1737 9.89257H10.4944Z" fill="#8B5CF6"/>
</g>
<defs>
<clipPath id="clip0_74_927">
<rect width="32" height="32" fill="white"/>
</clipPath>
</defs>
</svg>
