<svg width="29" height="28" viewBox="0 0 29 28" fill="none" xmlns="http://www.w3.org/2000/svg">
<path fill-rule="evenodd" clip-rule="evenodd" d="M14.2856 0C6.55366 0 0.285645 6.26801 0.285645 14C0.285645 21.732 6.55366 28 14.2856 28C22.0176 28 28.2856 21.732 28.2856 14C28.2856 6.26801 22.0176 0 14.2856 0ZM7.17851 20.2998H10.2261V10.4856H7.17851V20.2998ZM6.9357 7.36508C6.9357 8.33962 7.72615 9.1468 8.70069 9.1468C9.67489 9.1468 10.4657 8.33962 10.4657 7.36508C10.4657 6.89698 10.2797 6.44805 9.94872 6.11705C9.61772 5.78605 9.16879 5.6001 8.70069 5.6001C8.23258 5.6001 7.78365 5.78605 7.45265 6.11705C7.12165 6.44805 6.9357 6.89698 6.9357 7.36508ZM18.5914 20.2998H21.6324H21.6357V14.9087C21.6357 12.2706 21.0687 10.2395 17.9843 10.2395C16.5015 10.2395 15.5076 11.0532 15.1008 11.8243H15.0581V10.4856H12.1352V20.2998H15.1795V15.4402C15.1795 14.1606 15.4223 12.9235 17.0068 12.9235C18.5684 12.9235 18.5914 14.3837 18.5914 15.5223V20.2998Z" fill="#2D3748"/>
</svg>
