<svg width="32" height="32" viewBox="0 0 32 32" fill="none" xmlns="http://www.w3.org/2000/svg">
<path fill-rule="evenodd" clip-rule="evenodd" d="M5.8368 25.7452C4.49581 25.7159 3.04184 25.0574 1.98441 23.2767C1.68188 22.7673 1.02629 22.6011 0.520119 22.9056C0.0139434 23.2101 -0.151145 23.8699 0.151383 24.3794C1.58103 26.7868 3.70541 27.8484 5.79049 27.8939C7.82048 27.9382 9.78318 27.0159 10.9405 25.5411C11.306 25.0754 11.2271 24.3996 10.7644 24.0318C10.3016 23.6639 9.63016 23.7433 9.26467 24.209C8.544 25.1274 7.23289 25.7757 5.8368 25.7452Z" fill="#6767E6"/>
<path fill-rule="evenodd" clip-rule="evenodd" d="M14.0108 19.9005C14.6005 19.9005 15.0786 20.3816 15.0786 20.9751V20.991C15.0786 22.7358 15.0786 25.2843 14.0508 27.4842C13.5225 28.6149 12.721 29.6632 11.5218 30.4721C10.3275 31.2777 8.79423 31.8085 6.85417 31.995C6.26715 32.0515 5.74581 31.6183 5.68973 31.0275C5.63364 30.4367 6.06405 29.912 6.65107 29.8555C8.31474 29.6956 9.49063 29.2549 10.3329 28.6867C11.1703 28.1219 11.733 27.3943 12.1183 26.5696C12.9146 24.8653 12.9431 22.7941 12.9431 20.9751C12.9431 20.3816 13.4211 19.9005 14.0108 19.9005Z" fill="#6767E6"/>
<path fill-rule="evenodd" clip-rule="evenodd" d="M2.72717 21.8038C3.53318 23.3116 5.3913 24.0695 7.30289 23.4481C8.25913 23.1373 9.36818 22.5254 10.2195 21.2433C11.0591 19.9787 11.5762 18.1702 11.5762 15.5976C11.5762 15.0041 11.0981 14.5229 10.5084 14.5229C9.91874 14.5229 9.4407 15.0041 9.4407 15.5976C9.4407 17.8955 8.97775 19.2452 8.44399 20.0491C7.92189 20.8354 7.2641 21.2022 6.64659 21.4029C5.62451 21.7351 4.88107 21.2969 4.60772 20.7855C4.37767 20.3552 4.30438 19.4908 5.55977 18.5605C7.81537 16.889 8.0318 14.2736 6.92289 12.5077C6.37358 11.6329 5.48858 10.9566 4.38503 10.7613C3.27023 10.564 2.06886 10.8802 0.927844 11.7309C0.453999 12.0841 0.354423 12.7571 0.705433 13.234C1.05644 13.7109 1.72512 13.8112 2.19896 13.4579C2.96101 12.8897 3.58089 12.8012 4.01519 12.878C4.46072 12.9569 4.85263 13.2337 5.1177 13.6558C5.63754 14.4837 5.63255 15.8376 4.29364 16.8297C2.39395 18.2375 1.87784 20.2151 2.72717 21.8038Z" fill="#6767E6"/>
<path fill-rule="evenodd" clip-rule="evenodd" d="M25.9586 25.7452C27.2996 25.7159 28.7536 25.0574 29.811 23.2767C30.1135 22.7673 30.7691 22.6011 31.2753 22.9056C31.7815 23.2101 31.9466 23.8699 31.644 24.3794C30.2144 26.7868 28.09 27.8484 26.0049 27.8939C23.9749 27.9382 22.0122 27.0159 20.8549 25.5411C20.4894 25.0754 20.5683 24.3996 21.031 24.0318C21.4938 23.6639 22.1653 23.7433 22.5307 24.209C23.2514 25.1274 24.5625 25.7757 25.9586 25.7452Z" fill="#6767E6"/>
<path fill-rule="evenodd" clip-rule="evenodd" d="M17.7846 19.9005C17.1949 19.9005 16.7168 20.3816 16.7168 20.9751V20.991C16.7168 22.7358 16.7168 25.2843 17.7447 27.4842C18.273 28.6149 19.0744 29.6632 20.2736 30.4721C21.4679 31.2777 23.0012 31.8085 24.9412 31.995C25.5283 32.0515 26.0496 31.6183 26.1057 31.0275C26.1618 30.4367 25.7314 29.912 25.1443 29.8555C23.4807 29.6956 22.3048 29.2549 21.4625 28.6867C20.6251 28.1219 20.0624 27.3943 19.6771 26.5696C18.8808 24.8653 18.8523 22.7941 18.8523 20.9751C18.8523 20.3816 18.3743 19.9005 17.7846 19.9005Z" fill="#6767E6"/>
<path fill-rule="evenodd" clip-rule="evenodd" d="M29.068 21.8038C28.262 23.3116 26.4039 24.0695 24.4923 23.4481C23.536 23.1373 22.427 22.5254 21.5757 21.2433C20.736 19.9787 20.219 18.1702 20.219 15.5976C20.219 15.0041 20.697 14.5229 21.2867 14.5229C21.8764 14.5229 22.3545 15.0041 22.3545 15.5976C22.3545 17.8955 22.8174 19.2452 23.3512 20.0491C23.8733 20.8354 24.5311 21.2022 25.1486 21.4029C26.1707 21.7351 26.9141 21.2969 27.1874 20.7855C27.4175 20.3552 27.4908 19.4908 26.2354 18.5605C23.9798 16.889 23.7634 14.2736 24.8723 12.5077C25.4216 11.6329 26.3066 10.9566 27.4101 10.7613C28.5249 10.564 29.7263 10.8802 30.8673 11.7309C31.3412 12.0841 31.4407 12.7571 31.0897 13.234C30.7387 13.7109 30.07 13.8112 29.5962 13.4579C28.8342 12.8897 28.2143 12.8012 27.78 12.878C27.3344 12.9569 26.9425 13.2337 26.6775 13.6558C26.1576 14.4837 26.1626 15.8376 27.5015 16.8297C29.4012 18.2375 29.9173 20.2151 29.068 21.8038Z" fill="#6767E6"/>
<path fill-rule="evenodd" clip-rule="evenodd" d="M15.964 2.14924C13.1523 2.14924 10.9917 4.18444 10.9917 6.80797C10.9917 7.40147 10.5136 7.88259 9.92393 7.88259C9.33424 7.88259 8.8562 7.40147 8.8562 6.80797C8.8562 2.84845 12.1267 0 15.964 0C19.8062 0 23.0513 2.85302 23.0513 6.80797C23.0513 7.40147 22.5732 7.88259 21.9835 7.88259C21.3939 7.88259 20.9158 7.40147 20.9158 6.80797C20.9158 4.17987 18.7708 2.14924 15.964 2.14924Z" fill="#6767E6"/>
<ellipse cx="10.4509" cy="11.0252" rx="1.48296" ry="1.49253" fill="#6767E6"/>
<ellipse cx="1.48297" cy="1.49253" rx="1.48297" ry="1.49253" transform="matrix(-1 0 0 1 22.8275 9.53265)" fill="#6767E6"/>
</svg>
