<svg width="32" height="32" viewBox="0 0 32 32" fill="none" xmlns="http://www.w3.org/2000/svg">
<g clip-path="url(#clip0_74_950)">
<path fill-rule="evenodd" clip-rule="evenodd" d="M11.7623 8.81828C11.7754 9.3811 11.6758 9.94086 11.4695 10.4647C11.2631 10.9885 10.9542 11.4657 10.5608 11.8684C10.1673 12.2711 9.69738 12.5911 9.17852 12.8095C8.65967 13.028 8.10237 13.1405 7.5394 13.1405C6.97643 13.1405 6.41913 13.028 5.90028 12.8095C5.38142 12.5911 4.91147 12.2711 4.51804 11.8684C4.12462 11.4657 3.81566 10.9885 3.60932 10.4647C3.40299 9.94086 3.30345 9.3811 3.31654 8.81828C3.3422 7.71532 3.79838 6.66617 4.58752 5.89518C5.37666 5.12418 6.43614 4.69254 7.5394 4.69254C8.64266 4.69254 9.70213 5.12418 10.4913 5.89518C11.2804 6.66617 11.7366 7.71532 11.7623 8.81828ZM17.0651 15.8949C17.688 15.8949 18.2854 16.1423 18.7258 16.5827C19.1662 17.0232 19.4137 17.6205 19.4137 18.2434C19.4137 18.8663 19.1662 19.4637 18.7258 19.9041C18.2854 20.3446 17.688 20.592 17.0651 20.592H12.128L10.4091 32.944C10.333 33.4901 10.0621 33.9903 9.64623 34.3524C9.23038 34.7145 8.69765 34.914 8.14626 34.9143H6.99426C6.43049 34.9141 5.88667 34.7057 5.4673 34.3289C5.04792 33.9521 4.78258 33.4337 4.72226 32.8731L4.07768 26.9074H3.68454C3.10095 26.9068 2.54143 26.6747 2.12877 26.2621C1.7161 25.8494 1.484 25.2899 1.4834 24.7063V21.9497C1.4837 21.1546 1.64061 20.3673 1.94517 19.6328C2.24973 18.8983 2.69598 18.231 3.25844 17.669C3.8209 17.1069 4.48855 16.6612 5.22327 16.3572C5.958 16.0532 6.74541 15.8968 7.54054 15.8971H17.0651V15.8949Z" fill="#2563EB"/>
<path fill-rule="evenodd" clip-rule="evenodd" d="M17.5062 23.4308H29.2616C30.9645 23.4308 32.3428 22.0503 32.3428 20.3474V5.99999C32.3428 4.29485 30.9622 2.91428 29.2616 2.91428H11.4468C12.2499 3.44452 12.9363 4.13305 13.4642 4.93773C13.992 5.74241 14.3501 6.64633 14.5165 7.59417C14.683 8.54201 14.6543 9.51385 14.4323 10.4502C14.2102 11.3866 13.7994 12.2678 13.2251 13.04H17.0651C18.4081 13.0386 19.6997 13.5565 20.6697 14.4853C21.6398 15.4141 22.2133 16.682 22.2702 18.0238C22.3272 19.3656 21.8633 20.6775 20.9754 21.6852C20.0875 22.6929 18.8445 23.3184 17.5062 23.4308Z" fill="#93C5FD"/>
</g>
<defs>
<clipPath id="clip0_74_950">
<rect width="32" height="32" fill="white"/>
</clipPath>
</defs>
</svg>
