<svg width="29" height="32" viewBox="0 0 29 32" fill="none" xmlns="http://www.w3.org/2000/svg">
<path d="M25 0C24.4477 0 24 0.447715 24 1V3.8C24 4.35229 23.5523 4.8 23 4.8H21.8C21.2477 4.8 20.8 4.35228 20.8 3.8V0.999999C20.8 0.447715 20.3523 0 19.8 0H17C16.4477 0 16 0.447715 16 1V3.8C16 4.35229 15.5523 4.8 15 4.8H13.8C13.2477 4.8 12.8 4.35228 12.8 3.8V0.999999C12.8 0.447715 12.3523 0 11.8 0H9C8.44771 0 8 0.447715 8 1V3.8C8 4.35229 7.55228 4.8 7 4.8H5.8C5.24772 4.8 4.8 4.35228 4.8 3.8V0.999999C4.8 0.447715 4.35228 0 3.8 0H0.999999C0.447715 0 0 0.447715 0 1V31C0 31.5523 0.447715 32 1 32H27.8C28.3523 32 28.8 31.5523 28.8 31V1C28.8 0.447715 28.3523 0 27.8 0H25ZM6.4 12.2C6.4 11.6477 6.84771 11.2 7.4 11.2H18.2C18.7523 11.2 19.2 11.6477 19.2 12.2V13.4C19.2 13.9523 18.7523 14.4 18.2 14.4H7.4C6.84772 14.4 6.4 13.9523 6.4 13.4V12.2ZM22.4 26.2C22.4 26.7523 21.9523 27.2 21.4 27.2H7.4C6.84771 27.2 6.4 26.7523 6.4 26.2V25C6.4 24.4477 6.84771 24 7.4 24H21.4C21.9523 24 22.4 24.4477 22.4 25V26.2ZM22.4 19.8C22.4 20.3523 21.9523 20.8 21.4 20.8H7.4C6.84771 20.8 6.4 20.3523 6.4 19.8V18.6C6.4 18.0477 6.84771 17.6 7.4 17.6H21.4C21.9523 17.6 22.4 18.0477 22.4 18.6V19.8Z" fill="#FB923C"/>
</svg>
