<svg width="29" height="28" viewBox="0 0 29 28" fill="none" xmlns="http://www.w3.org/2000/svg">
<path fill-rule="evenodd" clip-rule="evenodd" d="M14.2856 0C6.55366 0 0.285645 6.26801 0.285645 14C0.285645 21.732 6.55366 28 14.2856 28C22.0176 28 28.2856 21.732 28.2856 14C28.2856 6.26801 22.0176 0 14.2856 0ZM20.9694 11.0262C20.9694 10.877 20.9694 10.7278 20.9588 10.5785C21.6304 10.0881 22.2167 9.48055 22.6856 8.79835C22.0674 9.06482 21.3958 9.25674 20.7029 9.33132C21.4171 8.90495 21.9607 8.23338 22.2166 7.43387C21.5557 7.82828 20.8095 8.11611 20.0313 8.26534C19.4024 7.59377 18.507 7.17803 17.5156 7.17803C15.6075 7.17803 14.0725 8.7237 14.0725 10.6212C14.0725 10.8877 14.1044 11.1542 14.1577 11.41C11.3009 11.2607 8.75319 9.89629 7.05826 7.80695C6.75976 8.31863 6.58923 8.90492 6.58923 9.5445C6.58923 10.7384 7.19682 11.7937 8.12424 12.412C7.5593 12.3907 7.02626 12.2308 6.56791 11.975V12.0176C6.56791 13.6912 7.75119 15.077 9.32885 15.3968C9.04105 15.4714 8.73189 15.514 8.42276 15.514C8.19888 15.514 7.9857 15.4927 7.77249 15.4608C8.20955 16.8252 9.47808 17.8166 10.9918 17.8486C9.80853 18.776 8.32679 19.3196 6.71717 19.3196C6.42934 19.3196 6.16287 19.309 5.8857 19.277C7.41007 20.2577 9.22224 20.8227 11.173 20.8227C17.505 20.8227 20.9694 15.578 20.9694 11.0262Z" fill="#2D3748"/>
</svg>
