<svg width="32" height="32" viewBox="0 0 32 32" fill="none" xmlns="http://www.w3.org/2000/svg">
<g clip-path="url(#clip0_74_938)">
<path d="M20 8C20.5304 8 21.0392 8.21071 21.4143 8.58579C21.7894 8.96085 22 9.46956 22 10C22 10.5304 21.7894 11.0391 21.4143 11.4142C21.0392 11.7893 20.5304 12 20 12H18.6667V14.6667H21.3334V14.472C22.1628 14.2247 22.9071 13.7516 23.4831 13.1057C24.0591 12.4597 24.4442 11.6663 24.5951 10.8141C24.7462 9.96189 24.6572 9.08449 24.3382 8.27993C24.0192 7.47537 23.4828 6.77537 22.7888 6.25816C22.095 5.74095 21.2708 5.42691 20.4087 5.35112C19.5466 5.27533 18.6803 5.4408 17.9067 5.82903C17.1332 6.21725 16.4828 6.81293 16.0284 7.54951C15.574 8.28608 15.3334 9.13452 15.3334 10H18C18 9.46956 18.2107 8.96085 18.5858 8.58579C18.9608 8.21071 19.4696 8 20 8Z" fill="#ED64A6"/>
<path d="M20 8.89343e-07C17.0769 -0.00112445 14.2542 1.06576 12.0626 3L13.8266 5C14.9969 3.96992 16.4065 3.24939 17.9269 2.9042C19.4472 2.55901 21.0297 2.60016 22.5301 3.02388C24.0304 3.44761 25.4008 4.24041 26.5158 5.32992C27.631 6.41941 28.4554 7.77089 28.914 9.26097C29.3725 10.7511 29.4504 12.3322 29.1406 13.8601C28.8309 15.3881 28.1433 16.8141 27.1408 18.008C26.1382 19.2019 24.8525 20.1256 23.4012 20.6948C21.9497 21.2641 20.3789 21.4607 18.832 21.2667L18.5013 23.9147C18.9986 23.9739 19.4992 24.0024 20 24C23.1825 24 26.2348 22.7357 28.4853 20.4853C30.7357 18.2348 32 15.1825 32 12C32 8.8174 30.7357 5.76516 28.4853 3.51472C26.2348 1.26428 23.1825 8.89343e-07 20 8.89343e-07Z" fill="#ED64A6"/>
<path d="M20 18.6667C20.7364 18.6667 21.3333 18.0697 21.3333 17.3333C21.3333 16.5969 20.7364 16 20 16C19.2636 16 18.6666 16.5969 18.6666 17.3333C18.6666 18.0697 19.2636 18.6667 20 18.6667Z" fill="#ED64A6"/>
<path d="M9.91867 13.576C10.8915 13.1372 11.6846 12.3782 12.1657 11.4255C12.6467 10.4729 12.7867 9.38411 12.5623 8.34073C12.3379 7.29735 11.7627 6.36241 10.9325 5.69177C10.1022 5.02115 9.06724 4.65533 8 4.65533C6.93276 4.65533 5.89776 5.02115 5.06755 5.69177C4.23733 6.36241 3.66208 7.29735 3.43767 8.34073C3.21325 9.38411 3.35325 10.4729 3.83432 11.4255C4.3154 12.3782 5.10847 13.1372 6.08133 13.576C4.34711 14.0044 2.80616 15.0009 1.70404 16.4068C0.601927 17.8127 0.00204999 19.5469 0 21.3333V26.6667C0 27.0203 0.140476 27.3595 0.390524 27.6095C0.640573 27.8595 0.979712 28 1.33333 28H2.66667V32H5.33333V26.6667C5.33333 26.3131 5.19285 25.9739 4.94281 25.7239C4.69276 25.4739 4.35363 25.3333 4 25.3333H2.66667V21.3333C2.66667 19.9188 3.22857 18.5623 4.22876 17.5621C5.22896 16.5619 6.58551 16 8 16C9.41449 16 10.771 16.5619 11.7712 17.5621C12.7714 18.5623 13.3333 19.9188 13.3333 21.3333V25.3333H12C11.6464 25.3333 11.3072 25.4739 11.0572 25.7239C10.8071 25.9739 10.6667 26.3131 10.6667 26.6667V32H13.3333V28H14.6667C15.0203 28 15.3595 27.8595 15.6095 27.6095C15.8595 27.3595 16 27.0203 16 26.6667V21.3333C15.998 19.5469 15.3981 17.8127 14.296 16.4068C13.1938 15.0009 11.6529 14.0044 9.91867 13.576ZM8 11.3333C7.60444 11.3333 7.21776 11.216 6.88885 10.9963C6.55996 10.7765 6.30361 10.4641 6.15224 10.0987C6.00087 9.73325 5.96125 9.33112 6.03843 8.94315C6.1156 8.55519 6.30608 8.19883 6.58579 7.91912C6.86549 7.63941 7.22185 7.44893 7.60981 7.37176C7.99779 7.29459 8.39992 7.3342 8.76537 7.48557C9.13081 7.63695 9.44317 7.89329 9.66293 8.22219C9.88271 8.55109 10 8.93777 10 9.33333C10 9.86376 9.78928 10.3725 9.41421 10.7475C9.03915 11.1226 8.53043 11.3333 8 11.3333Z" fill="#ED64A6"/>
</g>
<defs>
<clipPath id="clip0_74_938">
<rect width="32" height="32" fill="white"/>
</clipPath>
</defs>
</svg>
