<svg width="29" height="28" viewBox="0 0 29 28" fill="none" xmlns="http://www.w3.org/2000/svg">
<g clip-path="url(#clip0_145_566)">
<path d="M9.7958 21.7328C9.7958 21.8422 9.67002 21.9297 9.51143 21.9297C9.33096 21.9461 9.20518 21.8586 9.20518 21.7328C9.20518 21.6234 9.33096 21.5359 9.48955 21.5359C9.65361 21.5195 9.7958 21.607 9.7958 21.7328ZM8.09502 21.4867C8.05674 21.5961 8.16611 21.7219 8.33018 21.7547C8.47236 21.8094 8.63643 21.7547 8.66924 21.6453C8.70205 21.5359 8.59814 21.4102 8.43408 21.3609C8.29189 21.3227 8.1333 21.3773 8.09502 21.4867ZM10.5122 21.3938C10.3536 21.432 10.2442 21.5359 10.2606 21.6617C10.2771 21.7711 10.4192 21.8422 10.5833 21.8039C10.7419 21.7656 10.8513 21.6617 10.8349 21.5523C10.8185 21.4484 10.6708 21.3773 10.5122 21.3938ZM14.1106 0.4375C6.52549 0.4375 0.723145 6.19609 0.723145 13.7813C0.723145 19.8461 4.54033 25.0359 9.99268 26.8625C10.6927 26.9883 10.9388 26.5563 10.9388 26.2008C10.9388 25.8617 10.9224 23.9914 10.9224 22.843C10.9224 22.843 7.09424 23.6633 6.29033 21.2133C6.29033 21.2133 5.66689 19.6219 4.77002 19.2117C4.77002 19.2117 3.51768 18.3531 4.85752 18.3695C4.85752 18.3695 6.21924 18.4789 6.96846 19.7805C8.16611 21.8914 10.1731 21.2844 10.9552 20.9234C11.081 20.0484 11.4364 19.4414 11.8302 19.0805C8.77314 18.7414 5.68877 18.2984 5.68877 13.0375C5.68877 11.5336 6.10439 10.7789 6.97939 9.81641C6.83721 9.46094 6.37236 7.99531 7.12158 6.10313C8.26455 5.74766 10.895 7.57969 10.895 7.57969C11.9888 7.27344 13.1646 7.11484 14.3294 7.11484C15.4942 7.11484 16.67 7.27344 17.7638 7.57969C17.7638 7.57969 20.3942 5.74219 21.5372 6.10313C22.2864 8.00078 21.8216 9.46094 21.6794 9.81641C22.5544 10.7844 23.0903 11.5391 23.0903 13.0375C23.0903 18.3148 19.8692 18.7359 16.8122 19.0805C17.3153 19.5125 17.7419 20.3328 17.7419 21.618C17.7419 23.4609 17.7255 25.7414 17.7255 26.1898C17.7255 26.5453 17.9771 26.9773 18.6716 26.8516C24.1403 25.0359 27.8481 19.8461 27.8481 13.7813C27.8481 6.19609 21.6958 0.4375 14.1106 0.4375ZM6.03877 19.2992C5.96768 19.3539 5.98408 19.4797 6.07705 19.5836C6.16455 19.6711 6.29033 19.7094 6.36143 19.6383C6.43252 19.5836 6.41611 19.4578 6.32314 19.3539C6.23564 19.2664 6.10986 19.2281 6.03877 19.2992ZM5.44814 18.8563C5.40986 18.9273 5.46455 19.0148 5.57393 19.0695C5.66143 19.1242 5.7708 19.1078 5.80908 19.0313C5.84736 18.9602 5.79268 18.8727 5.6833 18.818C5.57393 18.7852 5.48643 18.8016 5.44814 18.8563ZM7.22002 20.8031C7.13252 20.8742 7.16533 21.0383 7.29111 21.1422C7.41689 21.268 7.57549 21.2844 7.64658 21.1969C7.71768 21.1258 7.68486 20.9617 7.57549 20.8578C7.45518 20.732 7.29111 20.7156 7.22002 20.8031ZM6.59658 19.9992C6.50908 20.0539 6.50908 20.1961 6.59658 20.3219C6.68408 20.4477 6.83174 20.5023 6.90283 20.4477C6.99033 20.3766 6.99033 20.2344 6.90283 20.1086C6.82627 19.9828 6.68408 19.9281 6.59658 19.9992Z" fill="#2D3748"/>
</g>
<defs>
<clipPath id="clip0_145_566">
<rect width="28" height="28" fill="white" transform="translate(0.285645)"/>
</clipPath>
</defs>
</svg>
