<svg width="12" height="12" viewBox="0 0 12 12" fill="none" xmlns="http://www.w3.org/2000/svg">
<path fill-rule="evenodd" clip-rule="evenodd" d="M9.39775 3.60225C9.61742 3.82192 9.61742 4.17808 9.39775 4.39775L3.39775 10.3977C3.17808 10.6174 2.82192 10.6174 2.60225 10.3977C2.38258 10.1781 2.38258 9.82192 2.60225 9.60225L8.60225 3.60225C8.82192 3.38258 9.17808 3.38258 9.39775 3.60225Z" fill="#8585EB"/>
<path fill-rule="evenodd" clip-rule="evenodd" d="M2.4375 4C2.4375 3.68934 2.68934 3.4375 3 3.4375H9C9.31066 3.4375 9.5625 3.68934 9.5625 4V10C9.5625 10.3107 9.31066 10.5625 9 10.5625C8.68934 10.5625 8.4375 10.3107 8.4375 10V4.5625H3C2.68934 4.5625 2.4375 4.31066 2.4375 4Z" fill="#8585EB"/>
</svg>
