<svg width="37" height="33" viewBox="0 0 37 33" fill="none" xmlns="http://www.w3.org/2000/svg">
<path d="M16.4062 32.8125V30.0781H31.901V16.224C31.901 12.466 30.5746 9.27837 27.9216 6.66094C25.2686 4.04323 22.0379 2.73438 18.2292 2.73438C14.4205 2.73438 11.1897 4.04323 8.53672 6.66094C5.88374 9.27837 4.55729 12.466 4.55729 16.224V27.3438H0V16.9076H1.82292L1.95964 14.4922C2.20269 12.4262 2.80273 10.5121 3.75977 8.75C4.7168 6.98788 5.91691 5.45353 7.36003 4.14714C8.80314 2.84072 10.459 1.82292 12.3275 1.09375C14.196 0.364583 16.1632 0 18.2292 0C20.2952 0 22.2548 0.364583 24.1081 1.09375C25.9613 1.82292 27.6172 2.83311 29.0755 4.12435C30.5339 5.41561 31.734 6.9423 32.6758 8.70443C33.6176 10.4665 34.2253 12.3806 34.4987 14.4466L34.6354 16.9076H36.4583V27.3438H34.6354V32.8125H16.4062ZM12.7522 19.5964C12.3627 19.5964 12.0388 19.4645 11.7806 19.2008C11.5224 18.9374 11.3932 18.6108 11.3932 18.221C11.3932 17.8315 11.5251 17.5076 11.7888 17.2493C12.0522 16.9911 12.3788 16.862 12.7686 16.862C13.1581 16.862 13.482 16.9939 13.7402 17.2576C13.9985 17.521 14.1276 17.8475 14.1276 18.2374C14.1276 18.6268 13.9957 18.9508 13.732 19.209C13.4686 19.4672 13.142 19.5964 12.7522 19.5964ZM23.6897 19.5964C23.3002 19.5964 22.9763 19.4645 22.7181 19.2008C22.4599 18.9374 22.3307 18.6108 22.3307 18.221C22.3307 17.8315 22.4626 17.5076 22.7263 17.2493C22.9897 16.9911 23.3163 16.862 23.7061 16.862C24.0956 16.862 24.4195 16.9939 24.6777 17.2576C24.9359 17.521 25.0651 17.8475 25.0651 18.2374C25.0651 18.6268 24.9332 18.9508 24.6695 19.209C24.4061 19.4672 24.0795 19.5964 23.6897 19.5964ZM7.33724 17.2266C7.1246 14.0061 8.09676 11.2413 10.2539 8.93229C12.4111 6.62329 15.0999 5.46875 18.3203 5.46875C20.9635 5.46875 23.2574 6.3422 25.2018 8.08919C27.1462 9.83618 28.3311 12.016 28.7565 14.6289C26.0525 14.5986 23.584 13.8389 21.3509 12.3503C19.1178 10.8616 17.3894 8.90194 16.1656 6.47135C15.688 8.90194 14.6669 11.0667 13.1022 12.9655C11.5375 14.8643 9.61589 16.2848 7.33724 17.2266Z" fill="#38B2AC"/>
</svg>
