<svg width="29" height="28" viewBox="0 0 29 28" fill="none" xmlns="http://www.w3.org/2000/svg">
<path fill-rule="evenodd" clip-rule="evenodd" d="M14.2856 0C6.55366 0 0.285645 6.26801 0.285645 14C0.285645 21.732 6.55366 28 14.2856 28C22.0176 28 28.2856 21.732 28.2856 14C28.2856 6.26801 22.0176 0 14.2856 0ZM18.6616 12.0099L18.195 15.0503H15.7442V22.4003H12.4574V15.0503H9.78678V12.0099H12.4574V9.69272C12.4574 7.05656 14.0278 5.60034 16.4303 5.60034C17.5811 5.60034 18.7846 5.80575 18.7846 5.80575V8.39433H17.4583C16.1517 8.39433 15.7442 9.20512 15.7442 10.0369V12.0099H18.6616Z" fill="#2D3748"/>
</svg>
