<svg width="999" height="179" viewBox="0 0 999 179" fill="none" xmlns="http://www.w3.org/2000/svg">
<path d="M490.617 94.5864C507.611 94.5864 521.446 108.422 521.446 125.415C521.446 142.409 507.611 156.244 490.617 156.244C473.624 156.244 459.788 142.409 459.788 125.415C459.788 108.422 473.624 94.5864 490.617 94.5864ZM490.617 74.0703C462.252 74.0703 439.254 97.0688 439.254 125.434C439.254 153.798 462.252 176.797 490.617 176.797C518.982 176.797 541.981 153.798 541.981 125.434C541.981 97.0688 518.982 74.0703 490.617 74.0703Z" fill="#00486F"/>
<path d="M0 176.34V32.6545H25.6635L74.307 128.317L122.75 32.6545H148.413V176.34H126.656V70.2187L82.7217 155.824H65.8925L21.7574 70.4378V176.359H0V176.34Z" fill="#00486F"/>
<path d="M200.469 178.805C191.853 178.805 184.734 177.363 179.113 174.497C173.491 171.631 169.329 167.835 166.591 163.107C163.853 158.38 162.484 153.214 162.484 147.61C162.484 137.754 166.318 129.96 173.984 124.21C181.65 118.461 192.602 115.595 206.82 115.595H233.506V113.752C233.506 105.812 231.352 99.8613 227.044 95.9004C222.737 91.9396 217.151 89.95 210.307 89.95C204.283 89.95 199.045 91.4285 194.609 94.3672C190.156 97.3059 187.454 101.65 186.505 107.4H164.748C165.423 100.007 167.924 93.6736 172.25 88.4168C176.557 83.1417 182.033 79.1079 188.677 76.297C195.321 73.486 202.604 72.0806 210.544 72.0806C224.781 72.0806 235.787 75.8041 243.6 83.2695C251.394 90.7349 255.3 100.883 255.3 113.752V176.359H236.408L234.565 158.909C231.699 164.531 227.519 169.24 222.043 173.073C216.549 176.888 209.358 178.805 200.469 178.805ZM204.776 161.154C210.654 161.154 215.618 159.749 219.652 156.938C223.686 154.127 226.844 150.403 229.089 145.749C231.352 141.094 232.758 135.965 233.305 130.362H209.084C200.468 130.362 194.335 131.877 190.703 134.87C187.071 137.882 185.264 141.642 185.264 146.169C185.264 150.823 187.016 154.474 190.502 157.157C194.007 159.822 198.753 161.154 204.776 161.154Z" fill="#00486F"/>
<path d="M318.146 178.804C308.162 178.804 299.218 176.541 291.351 172.033C283.484 167.524 277.315 161.264 272.879 153.251C268.425 145.238 266.217 135.983 266.217 125.433C266.217 114.901 268.444 105.629 272.879 97.6161C277.333 89.6032 283.484 83.3425 291.351 78.834C299.218 74.3256 308.144 72.0623 318.146 72.0623C330.74 72.0623 341.309 75.3477 349.869 81.9187C358.412 88.4897 363.924 97.3788 366.388 108.604H343.609C342.24 103.001 339.228 98.6201 334.574 95.4623C329.919 92.3228 324.443 90.7349 318.146 90.7349C312.816 90.7349 307.888 92.0673 303.361 94.7322C298.853 97.3971 295.22 101.303 292.483 106.432C289.745 111.561 288.376 117.895 288.376 125.415C288.376 132.935 289.745 139.269 292.483 144.398C295.22 149.527 298.853 153.47 303.361 156.208C307.87 158.945 312.798 160.314 318.146 160.314C324.443 160.314 329.919 158.745 334.574 155.587C339.228 152.447 342.24 147.994 343.609 142.244H366.388C364.052 153.196 358.594 162.03 349.961 168.729C341.345 175.446 330.74 178.804 318.146 178.804Z" fill="#00486F"/>
<path d="M377.65 176.34V74.5264H397.144L398.988 93.8195C402.547 87.1208 407.512 81.8092 413.864 77.9031C420.234 73.997 427.919 72.0439 436.954 72.0439V94.8234H431.003C424.98 94.8234 419.614 95.8091 414.886 97.7986C410.159 99.7882 406.398 103.128 403.588 107.856C400.777 112.583 399.371 119.118 399.371 127.459V176.322H377.65V176.34Z" fill="#00486F"/>
<path d="M554.281 176.34V74.5264H573.574L575.418 88.8913C578.703 83.6893 583.048 79.5824 588.45 76.5707C593.853 73.559 600.114 72.0623 607.233 72.0623C623.386 72.0623 634.593 78.4325 640.891 91.1546C644.578 85.2772 649.542 80.6228 655.767 77.1913C661.991 73.778 668.726 72.0623 675.991 72.0623C688.713 72.0623 698.697 75.8953 705.962 83.5615C713.208 91.2276 716.84 102.654 716.84 117.84V176.34H695.083V120.085C695.083 100.372 687.563 90.5341 672.505 90.5341C664.838 90.5341 658.578 93.3997 653.722 99.1494C648.867 104.899 646.439 113.113 646.439 123.791V176.34H624.682V120.085C624.682 100.372 617.089 90.5341 601.903 90.5341C594.383 90.5341 588.177 93.3997 583.321 99.1494C578.466 104.899 576.038 113.113 576.038 123.791V176.34H554.281Z" fill="#00486F"/>
<path d="M779.01 178.804C769.025 178.804 760.154 176.578 752.434 172.142C744.694 167.689 738.653 161.501 734.272 153.561C729.891 145.621 727.701 136.385 727.701 125.853C727.701 115.175 729.855 105.812 734.163 97.7257C738.47 89.6579 744.494 83.3607 752.233 78.834C759.972 74.3256 768.971 72.0623 779.229 72.0623C789.213 72.0623 797.901 74.2891 805.294 78.7245C812.686 83.1782 818.436 89.0921 822.543 96.4845C826.649 103.877 828.694 112.018 828.694 120.907C828.694 122.276 828.657 123.754 828.584 125.324C828.511 126.894 828.42 128.646 828.274 130.562H749.039C749.714 140.419 752.963 147.903 758.785 153.032C764.608 158.161 771.344 160.734 779.01 160.734C785.161 160.734 790.326 159.329 794.506 156.518C798.686 153.707 801.789 149.91 803.852 145.128H825.609C822.871 154.711 817.432 162.706 809.291 169.149C801.15 175.592 791.057 178.804 779.01 178.804ZM779.01 89.9135C771.763 89.9135 765.32 92.0673 759.716 96.375C754.095 100.683 750.681 107.144 749.458 115.778H806.936C806.516 107.838 803.724 101.54 798.522 96.886C793.302 92.2498 786.804 89.9135 779.01 89.9135Z" fill="#00486F"/>
<path d="M881.078 176.341C871.094 176.341 863.154 173.913 857.259 169.058C851.381 164.202 848.424 155.551 848.424 143.084V92.7975H830.975V74.5266H848.424L851.089 48.6624H870.182V74.5266H898.911V92.7975H870.182V143.084C870.182 148.706 871.386 152.557 873.777 154.674C876.168 156.792 880.312 157.85 886.189 157.85H897.889V176.322H881.078V176.341Z" fill="#00486F"/>
<path d="M943.578 178.805C934.963 178.805 927.844 177.363 922.222 174.497C916.6 171.631 912.439 167.835 909.701 163.107C906.963 158.38 905.594 153.214 905.594 147.61C905.594 137.754 909.427 129.96 917.093 124.21C924.759 118.461 935.711 115.595 949.93 115.595H976.615V113.752C976.615 105.812 974.461 99.8613 970.154 95.9004C965.846 91.9396 960.261 89.95 953.416 89.95C947.393 89.95 942.154 91.4285 937.719 94.3672C933.265 97.3059 930.564 101.65 929.614 107.4H907.857C908.532 100.007 911.033 93.6736 915.359 88.4168C919.667 83.1417 925.142 79.1079 931.786 76.297C938.43 73.486 945.713 72.0806 953.653 72.0806C967.89 72.0806 978.897 75.8041 986.709 83.2695C994.503 90.7349 998.409 100.883 998.409 113.752V176.359H979.517L977.674 158.909C974.808 164.531 970.628 169.24 965.153 173.073C959.658 176.888 952.467 178.805 943.578 178.805ZM947.886 161.154C953.763 161.154 958.727 159.749 962.761 156.938C966.795 154.127 969.953 150.403 972.198 145.749C974.461 141.094 975.867 135.965 976.415 130.362H952.193C943.578 130.362 937.445 131.877 933.812 134.87C930.18 137.882 928.373 141.642 928.373 146.169C928.373 150.823 930.125 154.474 933.612 157.157C937.116 159.822 941.862 161.154 947.886 161.154Z" fill="#00486F"/>
<path d="M944.735 31.0637L923.528 27.9877C922.873 27.888 922.545 27.1333 922.929 26.5921L929.614 17.1361C930.07 16.481 929.543 15.7263 928.887 15.7263C928.716 15.7263 928.545 15.7832 928.374 15.8972L918.911 22.5762C918.754 22.6901 918.568 22.747 918.397 22.747C917.984 22.747 917.585 22.448 917.514 21.9781L914.435 0.787576C914.364 0.274903 913.951 0.0185547 913.552 0.0185547C913.153 0.0185547 912.739 0.274903 912.668 0.787576L909.59 21.9923C909.518 22.4622 909.119 22.7613 908.706 22.7613C908.535 22.7613 908.35 22.7043 908.193 22.6046L898.943 16.125C898.772 16.0111 898.601 15.9541 898.43 15.9541C897.789 15.9541 897.247 16.7089 897.703 17.364L904.188 26.6064C904.573 27.1475 904.245 27.9023 903.59 28.0019L882.368 31.078C881.356 31.2204 881.356 32.6872 882.368 32.8438L903.59 35.9199C904.245 36.0196 904.573 36.7743 904.188 37.3155L897.789 46.4724C897.333 47.1132 897.874 47.8822 898.516 47.8822C898.687 47.8822 898.858 47.8253 899.029 47.7114L908.193 41.3172C908.35 41.2033 908.535 41.1606 908.706 41.1606C909.119 41.1606 909.518 41.4596 909.59 41.9295L912.668 63.1343C912.739 63.647 913.153 63.9033 913.552 63.9033C913.951 63.9033 914.364 63.647 914.435 63.1343L917.514 41.9438C917.585 41.4739 917.984 41.1748 918.397 41.1748C918.568 41.1748 918.754 41.2317 918.911 41.3457L928.374 48.0104C928.545 48.1386 928.716 48.1813 928.887 48.1813C929.543 48.1813 930.07 47.4123 929.614 46.7714L922.929 37.3298C922.545 36.7886 922.873 36.0338 923.528 35.9341L944.735 32.8581C945.747 32.6872 945.747 31.2204 944.735 31.0637Z" fill="#2D88D3"/>
</svg>
