<svg width="369" height="66" viewBox="0 0 369 66" fill="none" xmlns="http://www.w3.org/2000/svg">
<path d="M181.116 34.9103C187.39 34.9103 192.497 40.0179 192.497 46.2911C192.497 52.5643 187.39 57.6718 181.116 57.6718C174.843 57.6718 169.736 52.5643 169.736 46.2911C169.736 40.0179 174.843 34.9103 181.116 34.9103ZM181.116 27.3367C170.645 27.3367 162.155 35.8267 162.155 46.2978C162.155 56.7689 170.645 65.259 181.116 65.259C191.587 65.259 200.078 56.7689 200.078 46.2978C200.078 35.8267 191.587 27.3367 181.116 27.3367Z" fill="#1C1E23"/>
<path d="M0 65.0905V12.0478H9.47388L27.431 47.3624L45.3141 12.0478H54.7879V65.0905H46.756V25.9149L30.5373 57.5168H24.3247L8.0319 25.9958V65.0972H0V65.0905Z" fill="#1C1E23"/>
<path d="M74.0032 66C70.8228 66 68.1948 65.4677 66.1195 64.4098C64.0441 63.3519 62.5079 61.9504 61.4971 60.2052C60.4864 58.46 59.981 56.5531 59.981 54.4845C59.981 50.8459 61.3961 47.9687 64.2261 45.8462C67.0561 43.7237 71.099 42.6658 76.348 42.6658H86.1992V41.9852C86.1992 39.0541 85.4041 36.8575 83.8139 35.3953C82.2237 33.9331 80.1618 33.1987 77.635 33.1987C75.4114 33.1987 73.4775 33.7445 71.8402 34.8293C70.1961 35.9142 69.1989 37.5178 68.8485 39.6403H60.8166C61.0659 36.9114 61.989 34.5733 63.5859 32.6327C65.1761 30.6853 67.1976 29.1962 69.6503 28.1586C72.103 27.1209 74.7915 26.602 77.7226 26.602C82.9783 26.602 87.0414 27.9766 89.9253 30.7325C92.8025 33.4884 94.2445 37.2348 94.2445 41.9852V65.0971H87.2706L86.59 58.6554C85.5321 60.7308 83.9891 62.4692 81.9676 63.8842C79.9395 65.2925 77.2847 66 74.0032 66ZM75.5934 59.4842C77.7631 59.4842 79.5958 58.9654 81.0849 57.9277C82.574 56.89 83.7398 55.5154 84.5686 53.7972C85.4041 52.079 85.923 50.1856 86.1251 48.1169H77.1836C74.0032 48.1169 71.7391 48.6762 70.3982 49.7813C69.0573 50.8931 68.3902 52.2811 68.3902 53.9522C68.3902 55.6704 69.0371 57.018 70.3241 58.0085C71.6178 58.9923 73.3698 59.4842 75.5934 59.4842Z" fill="#1C1E23"/>
<path d="M117.447 66C113.761 66 110.46 65.1644 107.555 63.5001C104.651 61.8358 102.374 59.5246 100.736 56.5666C99.0923 53.6085 98.277 50.1923 98.277 46.2976C98.277 42.4097 99.0991 38.9867 100.736 36.0287C102.381 33.0706 104.651 30.7594 107.555 29.0951C110.46 27.4308 113.755 26.5953 117.447 26.5953C122.096 26.5953 125.998 27.8081 129.158 30.2339C132.311 32.6596 134.346 35.9411 135.256 40.085H126.847C126.341 38.0164 125.23 36.3993 123.511 35.2336C121.793 34.0746 119.772 33.4884 117.447 33.4884C115.48 33.4884 113.66 33.9803 111.989 34.9641C110.325 35.9478 108.984 37.3898 107.973 39.2832C106.962 41.1766 106.457 43.5148 106.457 46.2909C106.457 49.067 106.962 51.4051 107.973 53.2986C108.984 55.192 110.325 56.6474 111.989 57.6581C113.654 58.6689 115.473 59.1742 117.447 59.1742C119.772 59.1742 121.793 58.5948 123.511 57.4291C125.23 56.2701 126.341 54.626 126.847 52.5035H135.256C134.393 56.5464 132.379 59.8076 129.192 62.2805C126.011 64.7601 122.096 66 117.447 66Z" fill="#1C1E23"/>
<path d="M139.414 65.0905V27.5051H146.61L147.291 34.6274C148.604 32.1545 150.437 30.1937 152.782 28.7517C155.134 27.3097 157.971 26.5887 161.306 26.5887V34.998H159.109C156.886 34.998 154.905 35.3618 153.16 36.0963C151.414 36.8307 150.026 38.0638 148.989 39.809C147.951 41.5542 147.432 43.9664 147.432 47.0458V65.0838H139.414V65.0905Z" fill="#1C1E23"/>
<path d="M204.619 65.0903V27.5049H211.742L212.422 32.8078C213.635 30.8875 215.239 29.3714 217.233 28.2596C219.228 27.1478 221.539 26.5953 224.167 26.5953C230.13 26.5953 234.267 28.9469 236.592 33.6434C237.953 31.4737 239.786 29.7555 242.084 28.4887C244.381 27.2287 246.868 26.5953 249.549 26.5953C254.246 26.5953 257.932 28.0103 260.613 30.8403C263.288 33.6703 264.629 37.8884 264.629 43.4945V65.0903H256.598V44.3233C256.598 37.0461 253.821 33.4143 248.262 33.4143C245.432 33.4143 243.121 34.4722 241.329 36.5947C239.536 38.7172 238.64 41.7494 238.64 45.6912V65.0903H230.608V44.3233C230.608 37.0461 227.805 33.4143 222.199 33.4143C219.423 33.4143 217.132 34.4722 215.34 36.5947C213.547 38.7172 212.651 41.7494 212.651 45.6912V65.0903H204.619Z" fill="#1C1E23"/>
<path d="M287.578 66C283.892 66 280.617 65.1779 277.767 63.5405C274.91 61.8964 272.68 59.6122 271.063 56.6811C269.446 53.75 268.637 50.3405 268.637 46.4526C268.637 42.5108 269.432 39.0541 271.022 36.0691C272.612 33.0908 274.836 30.7662 277.693 29.0951C280.55 27.4308 283.872 26.5953 287.659 26.5953C291.345 26.5953 294.552 27.4173 297.281 29.0547C300.01 30.6988 302.132 32.882 303.648 35.6109C305.164 38.3399 305.919 41.3451 305.919 44.6266C305.919 45.1319 305.906 45.6777 305.879 46.2572C305.852 46.8367 305.818 47.4835 305.764 48.191H276.514C276.763 51.8296 277.963 54.5923 280.112 56.4857C282.261 58.3791 284.748 59.3292 287.578 59.3292C289.849 59.3292 291.756 58.8104 293.299 57.7727C294.842 56.735 295.987 55.3335 296.749 53.5681H304.78C303.77 57.1056 301.762 60.0569 298.756 62.4355C295.751 64.8141 292.025 66 287.578 66ZM287.578 33.1852C284.903 33.1852 282.524 33.9803 280.456 35.5705C278.38 37.1607 277.12 39.546 276.669 42.7331H297.887C297.732 39.8021 296.701 37.4774 294.781 35.7592C292.854 34.0477 290.455 33.1852 287.578 33.1852Z" fill="#1C1E23"/>
<path d="M325.259 65.0905C321.573 65.0905 318.642 64.1943 316.466 62.402C314.296 60.6096 313.204 57.4158 313.204 52.8136V34.25H306.763V27.5051H313.204L314.188 17.9572H321.236V27.5051H331.842V34.25H321.236V52.8136C321.236 54.889 321.681 56.3107 322.564 57.0923C323.446 57.874 324.976 58.2648 327.145 58.2648H331.465V65.0838H325.259V65.0905Z" fill="#1C1E23"/>
<path d="M348.329 66C345.149 66 342.521 65.4677 340.446 64.4098C338.37 63.3519 336.834 61.9504 335.823 60.2052C334.812 58.46 334.307 56.5531 334.307 54.4845C334.307 50.8459 335.722 47.9687 338.552 45.8462C341.382 43.7237 345.425 42.6658 350.674 42.6658H360.525V41.9852C360.525 39.0541 359.73 36.8575 358.14 35.3953C356.55 33.9331 354.488 33.1987 351.961 33.1987C349.737 33.1987 347.804 33.7445 346.166 34.8293C344.522 35.9142 343.525 37.5178 343.174 39.6403H335.143C335.392 36.9114 336.315 34.5733 337.912 32.6327C339.502 30.6853 341.524 29.1962 343.976 28.1586C346.429 27.1209 349.117 26.602 352.049 26.602C357.304 26.602 361.368 27.9766 364.251 30.7325C367.129 33.4884 368.571 37.2348 368.571 41.9852V65.0971H361.597L360.916 58.6554C359.858 60.7308 358.315 62.4692 356.294 63.8842C354.265 65.2925 351.611 66 348.329 66ZM349.919 59.4842C352.089 59.4842 353.922 58.9654 355.411 57.9277C356.9 56.89 358.066 55.5154 358.895 53.7972C359.73 52.079 360.249 50.1856 360.451 48.1169H351.51C348.329 48.1169 346.065 48.6762 344.724 49.7813C343.383 50.8931 342.716 52.2811 342.716 53.9522C342.716 55.6704 343.363 57.018 344.65 58.0085C345.944 58.9923 347.696 59.4842 349.919 59.4842Z" fill="#1C1E23"/>
<path d="M348.755 11.4606L340.926 10.325C340.684 10.2882 340.563 10.0096 340.705 9.80983L343.173 6.31908C343.341 6.07725 343.147 5.79862 342.905 5.79862C342.841 5.79862 342.778 5.81965 342.715 5.86171L339.222 8.32731C339.164 8.36937 339.095 8.39039 339.032 8.39039C338.88 8.39039 338.732 8.28 338.706 8.10652L337.57 0.28389C337.543 0.094633 337.391 0 337.244 0C337.096 0 336.944 0.094633 336.917 0.28389L335.781 8.11176C335.755 8.28525 335.607 8.39565 335.455 8.39565C335.392 8.39565 335.323 8.37462 335.265 8.33782L331.851 5.94582C331.788 5.90377 331.724 5.88274 331.661 5.88274C331.425 5.88274 331.225 6.16136 331.393 6.40319L333.787 9.81509C333.929 10.0149 333.808 10.2935 333.566 10.3303L325.732 11.4658C325.358 11.5184 325.358 12.0599 325.732 12.1177L333.566 13.2532C333.808 13.29 333.929 13.5687 333.787 13.7685L331.425 17.1488C331.256 17.3854 331.456 17.6692 331.693 17.6692C331.756 17.6692 331.819 17.6482 331.882 17.6062L335.265 15.2457C335.323 15.2037 335.392 15.1879 335.455 15.1879C335.607 15.1879 335.755 15.2983 335.781 15.4718L336.917 23.2997C336.944 23.4889 337.096 23.5835 337.244 23.5835C337.391 23.5835 337.543 23.4889 337.57 23.2997L338.706 15.477C338.732 15.3035 338.88 15.1931 339.032 15.1931C339.095 15.1931 339.164 15.2142 339.222 15.2562L342.715 17.7166C342.778 17.7639 342.841 17.7797 342.905 17.7797C343.147 17.7797 343.341 17.4958 343.173 17.2592L340.705 13.7737C340.563 13.5739 340.684 13.2953 340.926 13.2585L348.755 12.123C349.129 12.0599 349.129 11.5184 348.755 11.4606Z" fill="#8585EB"/>
</svg>
